<svg xmlns="http://www.w3.org/2000/svg" width="800" height="800" viewBox="0 0 800 800">
  <rect width="800" height="800" fill="#fef3c7"/>
  <!-- donation box -->
  <rect x="220" y="360" width="360" height="260" rx="16" fill="#d97706"/>
  <rect x="220" y="360" width="360" height="70" rx="16" fill="#b45309"/>
  <rect x="370" y="330" width="60" height="50" rx="8" fill="#92400e"/>
  <rect x="330" y="300" width="140" height="34" rx="10" fill="#fbbf24"/>
  <!-- heart on box -->
  <path d="M400,470 C385,450 355,455 350,478 C345,500 365,515 400,540 C435,515 455,500 450,478 C445,455 415,450 400,470 Z" fill="#fef3c7"/>
  <!-- coins falling -->
  <circle cx="290" cy="260" r="18" fill="#fbbf24" stroke="#b45309" stroke-width="4"/>
  <circle cx="340" cy="200" r="18" fill="#fbbf24" stroke="#b45309" stroke-width="4"/>
  <circle cx="470" cy="220" r="18" fill="#fbbf24" stroke="#b45309" stroke-width="4"/>
  <circle cx="500" cy="160" r="18" fill="#fbbf24" stroke="#b45309" stroke-width="4"/>
  <text x="30" y="770" font-family="Arial, sans-serif" font-size="20" fill="#78350f" opacity="0.55">SAMPLE IMAGE</text>
</svg>
