<svg xmlns="http://www.w3.org/2000/svg" width="600" height="400" viewBox="0 0 600 400">
  <rect width="600" height="400" fill="#dbeafe"/>
  <circle cx="510" cy="80" r="55" fill="#bfdbfe"/>
  <circle cx="70" cy="330" r="45" fill="#93c5fd" opacity="0.6"/>

  <!-- open book -->
  <path d="M300,150 L150,180 L150,290 L300,262 Z" fill="#1d4ed8"/>
  <path d="M300,150 L450,180 L450,290 L300,262 Z" fill="#2563eb"/>
  <path d="M300,150 L300,262" stroke="#1e3a8a" stroke-width="4"/>
  <path d="M170,195 L280,175" stroke="#bfdbfe" stroke-width="4" opacity="0.8"/>
  <path d="M170,215 L280,197" stroke="#bfdbfe" stroke-width="4" opacity="0.8"/>
  <path d="M170,235 L280,219" stroke="#bfdbfe" stroke-width="4" opacity="0.8"/>
  <path d="M320,175 L430,195" stroke="#dbeafe" stroke-width="4" opacity="0.8"/>
  <path d="M320,197 L430,215" stroke="#dbeafe" stroke-width="4" opacity="0.8"/>
  <path d="M320,219 L430,235" stroke="#dbeafe" stroke-width="4" opacity="0.8"/>

  <!-- graduation cap -->
  <g transform="translate(300,95)">
    <polygon points="0,-20 85,10 0,40 -85,10" fill="#f59e0b"/>
    <rect x="-10" y="10" width="20" height="35" fill="#b45309"/>
    <circle cx="60" cy="18" r="5" fill="#b45309"/>
    <line x1="60" y1="18" x2="60" y2="55" stroke="#b45309" stroke-width="3"/>
  </g>

  <text x="24" y="34" font-family="Arial, sans-serif" font-size="15" fill="#1e3a8a" opacity="0.6">SAMPLE IMAGE</text>
</svg>
