<svg xmlns="http://www.w3.org/2000/svg" width="600" height="400" viewBox="0 0 600 400">
  <rect width="600" height="400" fill="#fef3c7"/>
  <circle cx="500" cy="70" r="60" fill="#fde68a"/>
  <circle cx="60" cy="340" r="50" fill="#fcd34d" opacity="0.6"/>

  <!-- bowl -->
  <path d="M180,230 C180,290 235,330 300,330 C365,330 420,290 420,230 Z" fill="#b45309"/>
  <ellipse cx="300" cy="230" rx="120" ry="26" fill="#f59e0b"/>
  <ellipse cx="300" cy="222" rx="95" ry="18" fill="#fde68a"/>

  <!-- food items on top -->
  <circle cx="265" cy="212" r="16" fill="#dc2626"/>
  <circle cx="300" cy="205" r="18" fill="#16a34a"/>
  <circle cx="336" cy="214" r="15" fill="#ea580c"/>
  <rect x="280" y="190" width="40" height="14" rx="7" fill="#facc15"/>

  <!-- steam -->
  <path d="M270,180 C260,160 280,150 270,130" stroke="#f59e0b" stroke-width="6" fill="none" stroke-linecap="round" opacity="0.6"/>
  <path d="M300,175 C290,155 310,145 300,125" stroke="#f59e0b" stroke-width="6" fill="none" stroke-linecap="round" opacity="0.6"/>
  <path d="M330,180 C320,160 340,150 330,130" stroke="#f59e0b" stroke-width="6" fill="none" stroke-linecap="round" opacity="0.6"/>

  <text x="24" y="34" font-family="Arial, sans-serif" font-size="15" fill="#78350f" opacity="0.6">SAMPLE IMAGE</text>
</svg>
